<svg xmlns="http://www.w3.org/2000/svg" width="756" height="282.22" viewBox="0 0 756 282.22"><path d="M216.71,145c-8.27,0-14.87-6.18-17.64-16.53a61.13,61.13,0,0,1,.72-32.41c3.5-11.41,10-18.93,18.41-21.17a16.42,16.42,0,0,1,4.27-.58,13.41,13.41,0,0,1,9.92,4.26c3.45,3.63,5.26,9.26,5,15.44l-7.91,2.11c.33-4.88-.8-9.1-3.11-11.58a6.93,6.93,0,0,0-5.15-2.32,7.83,7.83,0,0,0-2,.27c-5.46,1.47-10,7.5-12.33,16.57a54.72,54.72,0,0,0-.08,26.82c1.9,7.11,5.84,11.18,10.8,11.18a10.67,10.67,0,0,0,2.74-.37c6.45-1.73,9.35-9.24,10.66-15.26l7.39,1.14c-1.45,11.18-7.85,19.34-17.13,21.82A17.31,17.31,0,0,1,216.71,145Z" fill="#ef3e4a"/><path d="M415.36,43.86c3-.79,5-4.77,4.11-8a3.8,3.8,0,0,0-4.79-2.77c-3,.79-4.94,4.58-4,8A3.63,3.63,0,0,0,415.36,43.86Z" fill="#ef3e4a"/><path d="M414.18,44a3.54,3.54,0,0,1-3.46-2.9c-.89-3.32,1-7.06,4-7.86a4.07,4.07,0,0,1,1.08-.15,3.7,3.7,0,0,1,3.62,2.87,6.87,6.87,0,0,1-.62,4.84,5.73,5.73,0,0,1-3.44,3,4.37,4.37,0,0,1-1.16.16Z" fill="#ef3e4a"/><path d="M252,127.93c-4.6,0-8.45-3.71-10.05-9.68a26.84,26.84,0,0,1,.82-16.36c2.06-5.26,5.61-8.81,10-10a9.37,9.37,0,0,1,2.39-.3,9.12,9.12,0,0,1,6.61,2.6l.11.13.36-4.08,6.92-1.86c-1.66,19-2.1,25.83-.52,27.55a1.3,1.3,0,0,0,1,.44,2.1,2.1,0,0,0,.58-.09c2.35-.63,5-4.34,6.84-9.68,2.48-7.08,3.69-13.88,4.16-23.47l7.3-2c.45.53,1,1.13,1.56,1.77,3.67,4.13,9.23,10.38,10.7,16.18a12.26,12.26,0,0,1-1,9.56l.1.1c2.86-2,5.42-6,7.21-11.35v0A23.8,23.8,0,0,1,309,82.8a15.63,15.63,0,0,1,9.79-8.58,11.59,11.59,0,0,1,2.92-.4,9,9,0,0,1,6.73,2.94,13.45,13.45,0,0,1,3.19,10.08l-7.08,1.9c.18-3.15-.46-5.74-1.77-7.14a3.14,3.14,0,0,0-2.33-1.07,3.61,3.61,0,0,0-.91.12c-2.14.58-3.93,2.76-4.9,6a19,19,0,0,0-.12,10.06c1.06,4,3.64,6.25,7.06,6.25a8.72,8.72,0,0,0,2.27-.31C330,101,333.89,96.88,336.61,89.3v0h0c-1.21-9.42,2.76-20.57,11.51-22.91a9,9,0,0,1,2.39-.31,9.09,9.09,0,0,1,6.61,2.61l.12.12.35-4.08,6.92-1.85c-1.66,19-2.1,25.83-.52,27.55a1.3,1.3,0,0,0,1,.43,2.52,2.52,0,0,0,.58-.08c2.42-.65,5.05-4.56,7.23-10.73v0c-1.39-9.57,2.52-20.91,11.46-23.31a9.37,9.37,0,0,1,2.39-.3A9.09,9.09,0,0,1,393.26,59l.12.12v-.17c.66-8.37,1.19-16.72,1.7-24.8l7.08-1.9-.23,2.65c-2.89,32.6-3.86,43.58-1.81,45.82a1.31,1.31,0,0,0,1,.44,1.94,1.94,0,0,0,.56-.08c2.78-.74,5.91-6,8.2-13.85.11-4.79.63-10.31,1.13-15.65l.12-1.21,7.16-1.92c-.14,1.42-.28,2.84-.42,4.23-1.12,11.05-2.08,20.59.11,23a1.71,1.71,0,0,0,1.32.6,2.39,2.39,0,0,0,.63-.09c2.42-.65,5.06-4.57,7.24-10.76v0c-1.42-9.55,2.51-20.88,11.56-23.3a9.37,9.37,0,0,1,2.39-.31,9.13,9.13,0,0,1,6.61,2.61l.12.13.27-4.07,6.92-1.85c-1.66,19-2.09,25.78-.5,27.52a1.36,1.36,0,0,0,1,.45,2.24,2.24,0,0,0,.6-.09c2.5-.67,5.47-6,7-10.73l4.95,2.79c-1.17,4.39-5.19,13.11-12.08,15l-.08,0a7.3,7.3,0,0,1-1.87.25h0c-3.63,0-5.32-3.1-5.76-4l-.07-.17-.06.18c-1.39,4.32-4,6.93-7.84,8a9.27,9.27,0,0,1-2.42.33c-3.39,0-6.39-2-8.44-5.53l-.07-.13-.06.13c-1.84,4.21-5,9.48-9.57,10.71a10.93,10.93,0,0,1-2.74.4c-3.05,0-5.07-1.76-6.18-5.38l-.05-.19-.08.18c-1.8,3.86-4.86,8.71-9.2,9.88a7.41,7.41,0,0,1-1.93.27,6.26,6.26,0,0,1-5.7-4.06l-.08-.18-.06.18c-1,2.78-2.82,6.62-7.84,8a9.8,9.8,0,0,1-2.48.34c-3.39,0-6.37-1.94-8.38-5.47l-.08-.13-.05.14c-1.84,4.17-5,9.4-9.54,10.62a7.36,7.36,0,0,1-1.93.27,6.27,6.27,0,0,1-5.7-4.06l-.08-.18-.06.18c-1,2.78-2.83,6.63-7.92,8a9.76,9.76,0,0,1-2.42.32c-3.38,0-6.35-1.94-8.36-5.48l-.07-.12-.06.13c-3,6.23-7.88,10.18-14.92,12.06a15.45,15.45,0,0,1-4.1.56,11.91,11.91,0,0,1-10.19-5.35l-.08-.11-.05.12c-3.12,6.88-8.22,10.94-16.53,13.17a20.7,20.7,0,0,1-5.28.7,14.94,14.94,0,0,1-9.16-2.8l-.07-.06,0,.08c-2.41,4.5-5.28,7.3-8.32,8.12a7.84,7.84,0,0,1-1.93.26,6.25,6.25,0,0,1-5.7-4l-.08-.18-.06.18c-1,2.78-2.83,6.63-7.93,8A9.22,9.22,0,0,1,252,127.93Zm4.7-30.13A6.2,6.2,0,0,0,255,98c-2.83.76-5,3.19-6.09,6.85a20.75,20.75,0,0,0,0,11c.61,2.27,2.21,4.68,4.9,4.68a4.78,4.78,0,0,0,1.23-.16c4.16-1.12,6.18-7.38,6.52-20.3v0l0,0A6.33,6.33,0,0,0,256.69,97.8Zm29.89-8A66,66,0,0,1,282,110l0,0,0,0a8.86,8.86,0,0,0,5.61,2.15,7.72,7.72,0,0,0,1.92-.25c3.32-.89,6.23-4.34,4.76-9.81-1.24-5-4.7-9.27-7.57-12.45l-.12-.13ZM352,72.25a6.64,6.64,0,0,0-1.66.22c-2.83.76-5,3.19-6.09,6.85a20.79,20.79,0,0,0,0,11c.61,2.26,2.21,4.68,4.9,4.68a4.8,4.8,0,0,0,1.23-.17c4.16-1.12,6.18-7.38,6.53-20.3v0l0,0A6.33,6.33,0,0,0,352,72.25Zm36.06-9.66a6.2,6.2,0,0,0-1.66.22c-2.83.76-5,3.19-6.09,6.84a20.39,20.39,0,0,0-.06,10.91c.78,2.94,2.67,4.77,4.92,4.77a4.86,4.86,0,0,0,1.23-.17c4.16-1.12,6.17-7.38,6.52-20.3v0A6.34,6.34,0,0,0,388.09,62.59ZM442.59,48a6.2,6.2,0,0,0-1.66.22c-4.88,1.3-8.49,8.71-6.09,17.65.63,2.34,2.26,4.84,5,4.84a4.71,4.71,0,0,0,1.21-.17c4.14-1.11,6.18-7.55,6.44-20.27v0A6.33,6.33,0,0,0,442.59,48Z" fill="#ef3e4a"/><path d="M470.6,97.49a9.22,9.22,0,0,1-9.3-7.21c-1.27-4.74.1-10.06,3.86-15,4-5.18,10.13-9.51,17.86-12.51l.05,0v0c1.31-17,2.4-32.2,3.3-46.51V16.1l-.1,0c-6.9,2.19-12.19,5.61-15.28,9.9a15.28,15.28,0,0,0-2.54,13.27,12.5,12.5,0,0,0,4.7,6.83l-4.5,5.79c-3.28-1.7-6.47-6-7.62-10.28A22.3,22.3,0,0,1,464.45,23C468.9,16.57,476.58,11.75,486.67,9l7.47-2c-1.35,21.93-2.82,43.6-4.38,64.41-1.19,14.68-6.35,23-15.8,25.58A12.82,12.82,0,0,1,470.6,97.49Zm11.83-27.66c-8.28,3.16-15.74,10.55-13.89,17.45a3.85,3.85,0,0,0,3.77,3.22h0a5.09,5.09,0,0,0,1.26-.17c4.82-1.29,7.83-7.32,8.7-17.44l.27-3.1Z" fill="#ef3e4a"/><path d="M512.65,70.84c-8.07,0-14.15-4.7-16.26-12.58-1.21-4.5-.6-10.79,1.37-14.37l7.49,1.88A13.57,13.57,0,0,0,504,56.12a9.76,9.76,0,0,0,9.85,7.36A13.91,13.91,0,0,0,517.4,63a13.37,13.37,0,0,0,9.53-16c-1.54-5.73-6.53-7.68-11.81-9.74-6.18-2.42-12.56-4.92-14.77-13.53s3.11-20,14.62-23a19.36,19.36,0,0,1,5-.68,14.37,14.37,0,0,1,11.18,5c3,3.48,4.16,8.25,3.34,13.42l-7.73,2.08c.78-5.72-.78-8.91-2.23-10.59a8,8,0,0,0-6.09-2.71,9.76,9.76,0,0,0-2.49.34A11.17,11.17,0,0,0,508,21c1.41,5.57,6.4,7.54,11.68,9.63,6.31,2.5,12.83,5.08,15.11,13.75a20.39,20.39,0,0,1-2.43,15.37A22.75,22.75,0,0,1,518.58,70,23,23,0,0,1,512.65,70.84Z" fill="#ef3e4a"/><path d="M242.52,153.12c.27-4.25.57-9.06.88-13.58v0l11.48-3.07.21-3.58-15.19,4.07c-.59,7.86-1.11,16.59-1.62,25-.21,3.52-.42,7-.62,10.34l3.81-1c.24-4.59.54-9.53.82-14.31v-.15l8.52-2.29.21-3.57-8.53,2.28Z" fill="#ef3e4a"/><path d="M303,130.6a3.46,3.46,0,0,0,2.09-4,1.93,1.93,0,0,0-2.44-1.41,3.36,3.36,0,0,0-2.05,4A1.86,1.86,0,0,0,303,130.6Z" fill="#ef3e4a"/><path d="M359.63,136.17a3.87,3.87,0,0,1-1,.14c-2.53,0-4.15-2.78-5.27-5.2l0-.06.06,0c6.92-3.74,10.41-10.56,8.69-17-1.22-4.55-4.94-7.26-10-7.26a15.08,15.08,0,0,0-4,.55,22.81,22.81,0,0,0-10,6.12l2.51,2.63a18.11,18.11,0,0,1,8.35-5.33,10.39,10.39,0,0,1,2.66-.37,6.51,6.51,0,0,1,6.72,4.87,10,10,0,0,1-1.11,7.75,14.28,14.28,0,0,1-9.07,6.33l-.1,0v-.1c.23-4,.55-8.25,1-12.61l-3.61,1c-.82,8.25-1.49,17.33-1.95,26.29l3.91-1c.14-3.6.28-6.81.44-9.82V133H348c.66-.13,1.33-.31,2-.49l.06,0,0,.06c2,4.76,5.08,7.5,8.47,7.5a7.19,7.19,0,0,0,1.82-.25,7.84,7.84,0,0,0,3.94-2.49l-1.95-3A4.72,4.72,0,0,1,359.63,136.17Z" fill="#ef3e4a"/><path d="M419.41,99.39a3.46,3.46,0,0,0,2.1-4,1.94,1.94,0,0,0-2.44-1.41A3.36,3.36,0,0,0,417,98,1.85,1.85,0,0,0,419.41,99.39Z" fill="#ef3e4a"/><path d="M460.25,101.06c-.74,2.37-2.31,5.1-3.57,5.43a1,1,0,0,1-.29,0c-.45,0-.8-.32-1-.9a11.52,11.52,0,0,1,.42-4.3c.41-2,.88-4.33.43-5.91a3.31,3.31,0,0,0-3.23-2.59A4,4,0,0,0,452,93c-2.23.6-4,2.64-5,5.59l-.14,0,.28-3.83-3.4.91c-.1,1.43-.19,2.86-.29,4.29l-.08,1.19v0a4.83,4.83,0,0,1-4.09,2.15h-.37l-.09-.34c-.59-2.19-2.37-4.75-5.46-4.75a5.94,5.94,0,0,0-1.54.21c-4.47,1.2-7.21,6.36-6.38,12v0c-1.11,3.12-2.45,5.1-3.68,5.43a1.26,1.26,0,0,1-.33.05.92.92,0,0,1-.7-.32c-1.12-1.24-.63-6.1-.06-11.72q.1-1,.21-2.1l-3.57,1-.05.57c-.25,2.68-.52,5.44-.58,7.87-1.23,4.18-2.75,6.79-4.15,7.16a1.23,1.23,0,0,1-.36.06,1,1,0,0,1-1-.88,11.32,11.32,0,0,1,.43-4.26c.43-2,.92-4.32.47-5.92a3.34,3.34,0,0,0-3.24-2.64,4.12,4.12,0,0,0-1,.14c-2.29.61-4.13,2.66-5.06,5.62l-.14,0,.28-3.82-3.4.91c-.19,2.68-.37,5.44-.57,8.45-1.18,4.09-2.76,6.76-4.21,7.15a1,1,0,0,1-.34.05.82.82,0,0,1-.61-.26c-.88-1-.63-4.6.28-13.93l-3.65,1c-.78,10.81-1.51,14.77-4,15.44a1.58,1.58,0,0,1-.47.07,1.29,1.29,0,0,1-1-.49c-1.2-1.4-1.22-5.83,0-13.54l-3.56,1a58.35,58.35,0,0,0-.75,8.36c-1.39,4.88-3.56,7.47-7,8.4a6.71,6.71,0,0,1-1.79.27,3.42,3.42,0,0,1-3.39-2.26l0-.09h.11a9.48,9.48,0,0,0,7.19-3.6,6,6,0,0,0,1-5.29,4.69,4.69,0,0,0-4.54-3.57,6,6,0,0,0-1.48.2,8.26,8.26,0,0,0-5.42,4.92,12.39,12.39,0,0,0-.48,8,6.31,6.31,0,0,0,6.39,4.93,9.45,9.45,0,0,0,2.42-.33,11.07,11.07,0,0,0,7.59-6.19l.08-.16.05.17c.68,2,1.85,3,3.47,3A5.1,5.1,0,0,0,386,129c2.06-.55,3.72-2.5,4.45-5.22h.14c.36,1.87,1.56,3,3.13,3a3.77,3.77,0,0,0,.93-.12,6.77,6.77,0,0,0,3.71-3.26l.14,0s-.09,1.45-.1,1.76l3.52-.94A41.78,41.78,0,0,1,403,114.6c.91-3.58,2.29-5.71,4-6.17a1.56,1.56,0,0,1,.46-.07c.57,0,.94.36,1.14,1.1a10.14,10.14,0,0,1-.37,4.06c-.4,1.9-.85,4.06-.39,5.81a3.33,3.33,0,0,0,3.29,2.74,4.84,4.84,0,0,0,1.22-.17c2.23-.6,3.8-3.08,4.73-5.05l.08-.18.06.19c.55,1.84,1.57,2.73,3.11,2.73a5.54,5.54,0,0,0,1.38-.2c2.31-.62,3.9-3.28,4.84-5.41l.05-.12.08.11a5.3,5.3,0,0,0,4.59,2.65,6,6,0,0,0,1.6-.22c3-.8,6.45-3.92,6.44-10.09v-.07h.07A7,7,0,0,0,443,105l.12-.08V105c-.17,2.84-.34,5.64-.49,8.3l3.53-1c0-5,1-14.73,5.08-15.82a2.09,2.09,0,0,1,.47-.06c.57,0,.94.36,1.14,1.1a10.09,10.09,0,0,1-.37,4.05c-.4,1.91-.86,4.07-.39,5.82a3.33,3.33,0,0,0,3.29,2.74h0a4.9,4.9,0,0,0,1.22-.17c1.61-.44,4.7-2.52,6.15-7.61Zm-92.47,23.69v-.07c-.33-3.4,1.07-6.31,3.32-6.91a2.14,2.14,0,0,1,.54-.08,1.77,1.77,0,0,1,1.72,1.52,3.52,3.52,0,0,1-.65,2.94,6.79,6.79,0,0,1-4.86,2.59Zm64.67-11.63a2.63,2.63,0,0,1-.67.09c-1.23,0-2.19-1-2.64-2.64a10.72,10.72,0,0,1,.12-5.56c.57-1.89,1.59-3.16,2.81-3.49a2.61,2.61,0,0,1,.66-.09c1.19,0,2.17,1,2.61,2.65C436.25,107.48,435.07,112.42,432.45,113.12Z" fill="#ef3e4a"/><path d="M331.22,141.77l-.14.11,0-.17c.12-1.82.23-3.59.34-5.36.22-3.48.45-7.07.75-10.83l-3.53,1c0,.5-.06,1-.08,1.53-.28,5.18-.58,11.05-3.81,11.92a2.31,2.31,0,0,1-.5.07,1.35,1.35,0,0,1-1.07-.5c-1.43-1.62-.94-7-.34-11.47l-3.52.94a42,42,0,0,0-.46,7.87c-1.15,4.31-2.87,7.36-4.4,7.77a1.77,1.77,0,0,1-.43.06.87.87,0,0,1-.64-.26c-.55-.58-.66-2.1-.45-6,.22-3.67.74-10.46,1.54-18.54l-3.61,1c-.62,6.92-1.19,13.51-1.38,18,0,.45,0,.88-.05,1.31-1.14,3.9-2.74,6.56-4.16,6.95a1.37,1.37,0,0,1-.34,0,.89.89,0,0,1-.69-.31c-1.12-1.24-.63-6.1-.07-11.72l.21-2.1-3.56.95-.06.58c-.25,2.65-.51,5.39-.57,7.79-.73,2.49-2.23,6.73-4.21,7.26a1.81,1.81,0,0,1-.39,0,1,1,0,0,1-1-.87,11.45,11.45,0,0,1,.44-4.31c.42-2,.89-4.34.45-5.91a3.29,3.29,0,0,0-3.2-2.6,4.27,4.27,0,0,0-1.05.14c-2.28.61-4.19,2.72-5.1,5.63H286c-.22-2-1.36-3.29-3-3.29a3.69,3.69,0,0,0-.92.12c-2.11.57-4,2.67-5.1,5.63l-.14,0,.32-3.83-3.36.9c-.21,3-.39,5.85-.55,8.32-1.15,4.1-2.78,6.9-4.26,7.29a1.18,1.18,0,0,1-.31.05.68.68,0,0,1-.53-.24c-.81-.88-.59-4.34.25-14l-3.44.93-.19,2.13-.11-.12a4.67,4.67,0,0,0-3.34-1.32,4.34,4.34,0,0,0-1.2.16,7.81,7.81,0,0,0-5.07,5.05,13.63,13.63,0,0,0-.41,8.29c.8,3,2.75,4.9,5.07,4.9a4.72,4.72,0,0,0,1.22-.17,5.71,5.71,0,0,0,4-4l.07-.18.07.18a3.16,3.16,0,0,0,2.86,2,3.8,3.8,0,0,0,1-.14,6.79,6.79,0,0,0,3.75-3.31l.14,0-.12,1.81,3.49-.93c.07-4.43.69-14.69,4.82-15.8a1.73,1.73,0,0,1,.38,0,1.36,1.36,0,0,1,1.29,1.16c.41,1.52.22,3.77-.42,11.25l-.15,1.86,3.52-.95c.13-5.48.92-14.75,4.78-15.78a1.5,1.5,0,0,1,.45-.07c.59,0,1,.38,1.2,1.09a10.31,10.31,0,0,1-.39,4.08c-.41,1.92-.87,4.1-.4,5.84a3.32,3.32,0,0,0,3.31,2.73,5,5,0,0,0,1.24-.17c2.25-.6,3.83-3.1,4.76-5.1l.09-.17,0,.18c.55,1.86,1.57,2.77,3.12,2.77a5.61,5.61,0,0,0,1.39-.2c2.17-.59,3.71-3,4.61-4.93l.08-.17.06.18c.54,1.82,1.49,2.67,3,2.67a5.56,5.56,0,0,0,1.43-.21c2.82-.76,4.57-4.56,5.37-6.75l.05-.15a4.65,4.65,0,0,0,.67,1,3.18,3.18,0,0,0,2.49,1.11h0a5.67,5.67,0,0,0,1.41-.21,5.24,5.24,0,0,0,3.54-3.46l.14,0-.3,4.29,0,0a28.65,28.65,0,0,0-7.06,4.39c-2.41,2.18-3.34,4.37-2.77,6.5a3.73,3.73,0,0,0,3.86,2.64,6.82,6.82,0,0,0,1.85-.26c4.14-1.1,6.78-5.4,7.26-11.79v0l0,0A19.19,19.19,0,0,0,339,132.19l-1.71-1.72C336.23,135.6,334.47,138.88,331.22,141.77Zm-66.6,6.73c-.18,6.59-1.21,9.78-3.35,10.35a2.28,2.28,0,0,1-.63.09c-1.16,0-2.13-.92-2.53-2.41a10.53,10.53,0,0,1,0-5.6,4.72,4.72,0,0,1,3.12-3.51,3.41,3.41,0,0,1,.85-.11,3.26,3.26,0,0,1,2.49,1.14l0,0ZM327.68,147c-.6,4.14-2.25,6.87-4.52,7.48a2.45,2.45,0,0,1-.63.09,1.32,1.32,0,0,1-1.36-1.07c-.35-1.29.85-2.73,1.92-3.71a16.1,16.1,0,0,1,4.49-2.87l.11-.05Z" fill="#ef3e4a"/><path d="M754.38,223.16c-6.17,0-6.17-.14-12.34-.14s-6.17.33-12.34.33-6.16.05-12.33.05-6.17-.05-12.34-.05-6.17-.54-12.34-.54H680.36l-12.34,0c-6.17,0-6.17.22-12.34.22s-6.17-.28-12.34-.28-6.17.27-12.33.27-6.17.36-12.34.36-6.17-.56-12.34-.56-6.17.13-12.34.13-6.17.32-12.34.32-6.17-.1-12.33-.1-6.17-.3-12.34-.3-6.17.48-12.34.48-6.17-.42-12.34-.42-6.17-.08-12.34-.08-6.17.36-12.33.36-6.17,0-12.34,0-6.17,0-12.34,0-6.17.06-12.34.06-6.17.08-12.34.08-6.17-.42-12.33-.42-6.17.2-12.34.2-6.17.21-12.34.21-6.17-.56-12.34-.56-6.17.29-12.34.29-6.16.41-12.33.41-6.17-.45-12.34-.45-6.17-.07-12.34-.07-6.17.44-12.33.44-6.17-.37-12.34-.37-6.17-.15-12.34-.15-6.17.26-12.34.26-6.17.15-12.34.15-6.16-.25-12.33-.25-6.17.38-12.34.38-6.17-.63-12.34-.63-6.17.29-12.34.29-6.17.26-12.34.26-6.17.09-12.33.09-6.17-.23-12.34-.23-6.17-.18-12.34-.18-6.17.31-12.34.31-6.17,0-12.34,0-6.17-.1-12.34-.1-6.17-.33-12.34-.33-6.17.11-12.34.11-6.17.2-12.34.2-6.17.19-12.34.19-6.17-.51-12.34-.51-6.17.31-12.34.31-6.17.22-12.34.22S69.61,223,63.44,223s-6.17.09-12.34.09-6.17-.14-12.34-.14-6.17.07-12.34.07H14.08c-6.17,0-6.17-.14-12.35-.14a1.8,1.8,0,0,0-1.6,1.58c0,2.91.21,2.91.21,5.82,0,.6.49,1,1.11,1.1,5.42,1.27,5.4,1.36,10.83,2.63s5.36,1.53,10.79,2.8,5.42,1.3,10.84,2.57A1.36,1.36,0,0,1,34,242c-5.42,1.28-5.43,1.25-10.86,2.52l-10.85,2.55c-5.42,1.27-5.53.81-11,2.08A1.89,1.89,0,0,0,0,250.6c0,3.18.38,3.18.38,6.36,0,.65.41,1.56,1.08,1.66,6.36,1,6.39.81,12.75,1.79s6.37.93,12.73,1.91,6.38.88,12.74,1.86a1.39,1.39,0,0,1,0,2.74c-6.36,1-6.43.53-12.79,1.51S20.65,270,14.29,271s-6.38.86-12.75,1.84c-.66.1-1.24.46-1.24,1.1,0,3.34.07,3.34.07,6.69,0,.72.6,1,1.36,1,6.17,0,6.17.37,12.34.37s6.17.05,12.34.05,6.17-.17,12.34-.17,6.16,0,12.33,0,6.17,0,12.34,0,6.17-.16,12.34-.16,6.17.08,12.34.08,6.16.08,12.33.08,6.17.13,12.34.13,6.17.25,12.34.25,6.17.08,12.34.08,6.16-.34,12.33-.34,6.17-.07,12.34-.07,6.17.23,12.34.23l12.34,0h12.34c6.16,0,6.16.25,12.33.25s6.17-.67,12.34-.67,6.17.57,12.34.57,6.17-.05,12.34-.05,6.17-.41,12.33-.41,6.17.4,12.34.4,6.17-.23,12.34-.23h12.34c6.17,0,6.17-.07,12.34-.07s6.17.44,12.34.44h12.33c6.17,0,6.17-.24,12.34-.24s6.17-.19,12.34-.19,6.17.34,12.34.34,6.16-.58,12.33-.58,6.17.55,12.34.55,6.17,0,12.34,0,6.17-.17,12.34-.17,6.16-.3,12.33-.3,6.17.52,12.34.52,6.17-.22,12.34-.22,6.17.13,12.33.13,6.17-.06,12.34-.06,6.17.14,12.34.14,6.17-.5,12.34-.5,6.17.47,12.34.47,6.17-.19,12.34-.19,6.17.2,12.34.2,6.17-.29,12.33-.29,6.17.07,12.34.07,6.17-.29,12.34-.29,6.17.18,12.34.18,6.17-.18,12.34-.18,6.17.31,12.34.31,6.17.3,12.34.3,6.17-.3,12.34-.3,6.17.06,12.34.06,6.17-.3,12.34-.3,6.17.24,12.34.24,6.17-.35,12.34-.35,6.17.52,12.34.52,6.17-.24,12.34-.24,6.17.14,12.34.14H742c6.17,0,6.17-.35,12.34-.35.76,0,1.33-.34,1.33-1.06,0-3.66.29-3.66.29-7.31,0-.6-.68-1.11-1.3-1.26-5.42-1.27-5.44-1.18-10.87-2.45s-5.47-1.07-10.9-2.34-5.29-1.83-10.72-3.1a1.28,1.28,0,0,1-.11-2.52c5.42-1.28,5.48-1,10.91-2.31s5.35-1.58,10.77-2.85,5.44-1.22,10.87-2.49c.61-.15.88-.42.88-1,0-3.18.45-3.18.45-6.36,0-.65-.73-1.07-1.4-1.17-6.36-1-6.39-.82-12.75-1.79s-6.34-1.17-12.7-2.15-6.35-1.06-12.71-2a1.28,1.28,0,0,1,0-2.55c6.36-1,6.33-1.18,12.7-2.15s6.39-.75,12.76-1.73,6.3-1.38,12.66-2.35c.67-.11,1.06-.36,1.06-1,0-2.6.18-2.6.18-5.2A1.34,1.34,0,0,0,754.38,223.16Z" fill="#ef3e4a"/><path d="M79.72,237.29c-.76,9.6-1.55,18.77-2.27,28H73.17c.25-2.27.54-4.57.79-6.9H66.88q-1.83,3.49-3.56,6.9H58.75c1.26-2.3,2.52-4.6,3.81-6.9H58.9l1.25-3.6h4.46c3.31-5.86,6.66-11.69,9.86-17.55Zm-5.36,17.55c.54-4.57,1-9.14,1.51-13.49-2.3,4.39-4.71,9-7.12,13.49Z" fill="#fff6cd"/><path d="M86.41,241.46h3.85c-4.32,9.93-6.19,17.26-2.81,17.26,3,0,5.54-6.65,8.24-17.26h3.84c-3.16,13-6.83,20.93-12.37,20.93C79.86,262.39,80.87,253.76,86.41,241.46Z" fill="#fff6cd"/><path d="M115.39,251.39l-1.11,3.23H113c-1.66,5.18-4.57,7.91-9,7.91-2.91,0-5.79-2.12-5.79-6.94,0-5.86,4-14.49,10.79-14.49,4,0,6.55,3.06,5.36,7.44h-3.81c.79-2.51-.33-3.88-1.84-3.88-3.52,0-6.61,6-6.61,10.57,0,2.45.93,3.74,2.59,3.74,2,0,3.63-1.83,4.56-4.35H106l1.12-3.23Z" fill="#fff6cd"/><path d="M134.78,251a6.84,6.84,0,0,1,4.27,6.41c0,4.89-3.88,8.45-9.56,8.45a8.39,8.39,0,0,1-8.56-6.51l3.63-1.73c.68,2.88,2.63,4.64,5.25,4.64a4.8,4.8,0,0,0,5.11-4.82c0-3-2.77-5.07-6.65-5.32l1-3.09c4.49.14,9.28-1.48,9.28-5.51a2.92,2.92,0,0,0-3.13-3.09,5.81,5.81,0,0,0-4.93,3.42l-3.17-1.8a9.43,9.43,0,0,1,8.38-5.14c4.18,0,6.77,2.91,6.77,6.33C142.44,247.79,138.55,250.42,134.78,251Z" fill="#fff6cd"/><path d="M143.3,256.78c0-8.74,5.86-19.78,13.84-19.78,3.85,0,7,3.17,7,9.24,0,8.17-5,19.53-13.74,19.53C146.43,265.77,143.3,262.71,143.3,256.78Zm16.76-10c.07-3.56-1.19-5.79-3.49-5.79-5,0-9.24,9.13-9.24,15.71,0,3.31,1.25,5.29,3.63,5.29C155.92,262,160,253,160.06,246.75Z" fill="#fff6cd"/><path d="M173.11,252.86l1-3h9.17l-1,3Z" fill="#fff6cd"/><path d="M190.37,258.33a9.63,9.63,0,0,1,2-5.69l3.49,1.91a5.62,5.62,0,0,0-1.36,3.71c0,2.3,1.76,3.81,4.17,3.81a5,5,0,0,0,5-4.82c0-5.25-8.2-5.15-8.17-12.27,0-4,3.24-8,8.74-8s8.56,4.82,6.37,9.6h-4.07c1.73-4.14-.39-6.11-2.62-6.11a4.17,4.17,0,0,0-4.24,4.24c0,4.82,8.34,5,8.27,12.27,0,4.42-3.38,8.77-9.53,8.77C193.93,265.7,190.37,262.64,190.37,258.33Z" fill="#fff6cd"/><path d="M226.33,244.7H219l-1.87,5.5h5.1l-1.11,3.24H216l-1.83,5.43h7.44l-1.11,3.23h-11.3l7-20.64h11.22Z" fill="#fff6cd"/><path d="M230.15,241.46c5.93-1.47,10.71.61,10.71,6.08,0,6.15-5.79,10.1-12.33,9.78l-1.62,4.78h-3.78ZM229.68,254c4.85,0,7.41-3,7.41-6.26,0-2.45-1.73-3.49-4.14-3.35Z" fill="#fff6cd"/><path d="M255.54,244.66H251l-5.93,17.44h-3.85l5.9-17.44h-4.57l1.08-3.2h13Z" fill="#fff6cd"/><path d="M265.28,261.82h10.43l-1.22,3.52H259.27l-.21-3.85c7.34-3.88,17.55-9.67,17.55-16.72,0-2.48-1.33-4.1-3.56-4.1a5.14,5.14,0,0,0-4.82,5.07,5.63,5.63,0,0,0,.83,3.13l-3.46,1.87a8.29,8.29,0,0,1-1.25-4.82,9.28,9.28,0,0,1,9.13-9c4.42,0,7.16,3.17,7.16,7.59C280.64,252.21,271.25,259.12,265.28,261.82Z" fill="#fff6cd"/><path d="M277.18,266.17l3.89-8.38h4.13l-5,8.38Z" fill="#fff6cd"/><path d="M301,261.82h10.43l-1.22,3.52H295l-.21-3.85c7.33-3.88,17.55-9.67,17.55-16.72,0-2.48-1.33-4.1-3.56-4.1a5.13,5.13,0,0,0-4.82,5.07,5.63,5.63,0,0,0,.83,3.13l-3.46,1.87a8.29,8.29,0,0,1-1.26-4.82,9.28,9.28,0,0,1,9.14-9c4.42,0,7.16,3.17,7.16,7.59C316.35,252.21,307,259.12,301,261.82Z" fill="#fff6cd"/><path d="M316.74,256.78c0-8.74,5.86-19.78,13.85-19.78,3.85,0,7,3.17,7,9.24,0,8.17-5,19.53-13.73,19.53C319.87,265.77,316.74,262.71,316.74,256.78Zm16.76-10c.07-3.56-1.19-5.79-3.49-5.79-5,0-9.24,9.13-9.24,15.71,0,3.31,1.26,5.29,3.63,5.29C329.36,262,333.39,253,333.5,246.75Z" fill="#fff6cd"/><path d="M342.53,261.82H353l-1.22,3.52H336.52l-.22-3.85c7.34-3.88,17.55-9.67,17.55-16.72,0-2.48-1.33-4.1-3.56-4.1a5.14,5.14,0,0,0-4.82,5.07,5.63,5.63,0,0,0,.83,3.13l-3.45,1.87a8.29,8.29,0,0,1-1.26-4.82,9.28,9.28,0,0,1,9.14-9c4.42,0,7.15,3.17,7.15,7.59C357.88,252.21,348.5,259.12,342.53,261.82Z" fill="#fff6cd"/><path d="M361.87,261.82H372.3l-1.22,3.52H355.87l-.22-3.85c7.34-3.88,17.55-9.67,17.55-16.72,0-2.48-1.33-4.1-3.56-4.1a5.14,5.14,0,0,0-4.82,5.07,5.63,5.63,0,0,0,.83,3.13l-3.45,1.87a8.21,8.21,0,0,1-1.26-4.82,9.28,9.28,0,0,1,9.13-9c4.43,0,7.16,3.17,7.16,7.59C377.23,252.21,367.84,259.12,361.87,261.82Z" fill="#fff6cd"/><path d="M386.43,252.68c0-2.44,2.16-4.67,4.25-4.6a2.7,2.7,0,0,1,2.8,2.91,4.74,4.74,0,0,1-4.35,4.57A2.6,2.6,0,0,1,386.43,252.68Z" fill="#fff6cd"/><path d="M402,258.33a9.64,9.64,0,0,1,2-5.69l3.49,1.91a5.58,5.58,0,0,0-1.37,3.71c0,2.3,1.76,3.81,4.17,3.81a5,5,0,0,0,5-4.82c0-5.25-8.2-5.15-8.16-12.27,0-4,3.23-8,8.74-8s8.56,4.82,6.36,9.6h-4.06c1.72-4.14-.4-6.11-2.63-6.11a4.19,4.19,0,0,0-4.24,4.24c0,4.82,8.34,5,8.27,12.27,0,4.42-3.38,8.77-9.53,8.77C405.57,265.7,402,262.64,402,258.33Z" fill="#fff6cd"/><path d="M427.39,241.46h3.85c-4.31,9.93-6.18,17.26-2.8,17.26,3,0,5.54-6.65,8.23-17.26h3.85c-3.16,13-6.83,20.93-12.37,20.93C420.85,262.39,421.86,253.76,427.39,241.46Z" fill="#fff6cd"/><path d="M454.15,241.46h3.45l-7,20.64h-4.42l-.9-14.45-4.68,14.45H437l7-20.64h4.18l.86,15.57Z" fill="#fff6cd"/><path d="M466.09,255.49c.65,2.33,1.4,4.49,2.19,6.61h-4c-.47-1.51-1.05-3.77-1.48-5.72a13.87,13.87,0,0,1-3,.18l-1.91,5.54h-3.78l7-20.6v0c7.44-1.51,11.15,1.51,11.15,5.9C472.28,251.42,469.51,254.12,466.09,255.49Zm-5.25-2.05c4.78-.15,7.52-2.81,7.52-5.9,0-2.41-1.84-3.27-4.46-3.1Z" fill="#fff6cd"/><path d="M470.76,262.1l7-20.64h3.85l-7,20.64Z" fill="#fff6cd"/><path d="M494.18,241.46h4.24L486.69,262.1H482l1.62-20.64h3.89l-1.62,16.36Z" fill="#fff6cd"/><path d="M510.68,244.7h-7.33l-1.87,5.5h5.1l-1.11,3.24h-5.11l-1.83,5.43H506l-1.11,3.23h-11.3l7-20.64H511.8Z" fill="#fff6cd"/><path d="M519.46,255.49c.64,2.33,1.4,4.49,2.19,6.61h-4c-.47-1.51-1-3.77-1.47-5.72a13.92,13.92,0,0,1-3,.18l-1.9,5.54h-3.78l7-20.6v0c7.45-1.51,11.15,1.51,11.15,5.9C525.64,251.42,522.87,254.12,519.46,255.49Zm-5.25-2.05c4.78-.15,7.51-2.81,7.51-5.9,0-2.41-1.83-3.27-4.46-3.1Z" fill="#fff6cd"/><path d="M546.57,256.89c1.08,2.77,2.41,5.86,3.67,8.45h-4.39c-1-2.3-2-5.11-2.87-7.55a12.86,12.86,0,0,1-3.71-.11q-1.29,3.94-2.48,7.66h-4.1c2.23-6.58,4.71-13.85,7.12-20.43h3.85c-1.12,3-2.2,6.19-3.27,9.35,6.15.72,10.28-3.63,10.28-8.23a5.86,5.86,0,0,0-6-5.76,13.05,13.05,0,0,0-8,2.52l-1.8-3.24a17.22,17.22,0,0,1,9.85-2.91c5.94,0,10,4.17,10,9.17S551.21,255.05,546.57,256.89Z" fill="#fff6cd"/><path d="M570.05,244.7h-7.33l-1.87,5.5H566l-1.11,3.24h-5.11l-1.83,5.43h7.44l-1.11,3.23H552.94l7-20.64h11.22Z" fill="#fff6cd"/><path d="M567.61,257.1a6.86,6.86,0,0,1,1.58-4.28l3,1.55a4.51,4.51,0,0,0-.76,2.38,2.54,2.54,0,0,0,2.84,2.58,3,3,0,0,0,3.13-2.87c0-3.78-6.11-3.71-6.08-9a6.48,6.48,0,0,1,6.62-6.37c4.93,0,6.47,4,5.39,7.05h-3.56c.83-2.38-.36-3.92-2-3.92a2.59,2.59,0,0,0-2.7,2.62c0,3.42,6.15,3.6,6.15,9.17,0,4-3.13,6.66-7.37,6.66C570.05,262.68,567.61,260.16,567.61,257.1Z" fill="#fff6cd"/><path d="M583.47,255.49c0-6.37,4.39-14.39,10.79-14.39,3.88,0,5.82,3.2,5.82,7.41,0,6.33-4.21,13.95-10.53,13.95C585.44,262.46,583.47,259.37,583.47,255.49Zm12.73-6.84c0-2.37-1-3.77-2.59-3.77-3.45,0-6.29,5.79-6.29,10.35,0,2.31,1,3.53,2.66,3.53C593.36,258.76,596.2,252.82,596.2,248.65Z" fill="#fff6cd"/><path d="M611,255.49c.65,2.33,1.4,4.49,2.19,6.61h-4c-.47-1.51-1-3.77-1.48-5.72a13.87,13.87,0,0,1-3,.18l-1.91,5.54H599l7-20.6v0c7.44-1.51,11.14,1.51,11.14,5.9C617.16,251.42,614.4,254.12,611,255.49Zm-5.25-2.05c4.78-.15,7.51-2.81,7.51-5.9,0-2.41-1.83-3.27-4.46-3.1Z" fill="#fff6cd"/><path d="M631.66,244.66h-4.53l-5.94,17.44h-3.85l5.9-17.44h-4.57l1.08-3.2h13Z" fill="#fff6cd"/><path d="M626.51,266.17l3.89-8.38h4.13l-5,8.38Z" fill="#fff6cd"/><path d="M646.76,256.64c0-9.17,6.29-19.71,14.13-19.71,4.68,0,7.77,3.81,7.77,9.46,0,8.16-5.9,19.31-14.06,19.31C649.49,265.7,646.76,261.89,646.76,256.64Zm17.73-10c0-3.49-1.47-5.76-4.06-5.76-5.22,0-9.53,8.74-9.53,15.5,0,3.45,1.47,5.36,4.13,5.36C660.17,261.78,664.49,252.86,664.49,246.68Z" fill="#fff6cd"/><path d="M681.72,256.89c1.07,2.77,2.41,5.86,3.66,8.45H681c-1-2.3-2-5.11-2.88-7.55a12.87,12.87,0,0,1-3.71-.11q-1.29,3.94-2.48,7.66h-4.1c2.23-6.58,4.71-13.85,7.12-20.43h3.85c-1.11,3-2.19,6.19-3.27,9.35,6.15.72,10.29-3.63,10.29-8.23a5.86,5.86,0,0,0-6-5.76,13.05,13.05,0,0,0-8,2.52l-1.8-3.24a17.26,17.26,0,0,1,9.86-2.91c5.93,0,10,4.17,10,9.17S686.36,255.05,681.72,256.89Z" fill="#fff6cd"/></svg>