<?xml version="1.0" encoding="utf-8"?>
<!-- Generator: Adobe Illustrator 25.4.1, SVG Export Plug-In . SVG Version: 6.00 Build 0)  -->
<svg version="1.1" id="Layer_1" xmlns="http://www.w3.org/2000/svg" xmlns:xlink="http://www.w3.org/1999/xlink" x="0px" y="0px"
	 viewBox="0 0 206 34" style="enable-background:new 0 0 206 34;" xml:space="preserve">
<style type="text/css">
	.st0{fill:#54B758;}
	.st1{opacity:0.6;fill:#FFFFFF;enable-background:new    ;}
</style>
<g>
	<g>
		<g>
			<g>
				<circle class="st0" cx="16.2" cy="17.1" r="16.2"/>
			</g>
			<path class="st1" d="M12.3,14.5v10.4c0,0.1,0,0.2,0,0.3l0,0v7.5c0.3,0.1,0.7,0.2,1,0.2v-8c0.1-0.6,0.4-0.8,1-1.1
				c0.7-0.4,1.6-0.8,1.6-2.4c0.6-0.2,1-0.8,1-1.5c0-0.9-0.7-1.5-1.5-1.5c-0.9,0-1.5,0.7-1.5,1.5c0,0.7,0.4,1.2,1,1.5
				c0,1-0.4,1.2-1.1,1.5c-0.2,0.1-0.3,0.2-0.5,0.3v-8.7c1.4-0.2,2.4-1.4,2.4-2.9c0-1.6-1.3-2.9-2.9-2.9S9.9,10,9.9,11.6
				C9.9,13.1,10.9,14.3,12.3,14.5z M12.8,9.7c1.1,0,1.9,0.9,1.9,1.9s-0.9,1.9-1.9,1.9s-1.9-0.9-1.9-1.9S11.7,9.7,12.8,9.7z"/>
			<path class="st1" d="M13.8,33.1c0.3,0,0.7,0.1,1,0.1v-1.6l0,0c0-0.4,0.1-0.7,0.3-0.9v2.6c0.3,0,0.7,0,1,0V30c0,0,0.1,0,0.1-0.1
				l1.3-0.8h0.1c0.5-0.3,1.4-0.8,1.4-2.4v-0.9l1.5-0.8l0,0c0.1,0,0.1-0.1,0.2-0.1c0.6-0.3,1-0.6,1-1.9v-1.6c0.4-0.2,0.7-0.6,0.7-1.1
				c0-0.7-0.5-1.2-1.2-1.2S20,19.6,20,20.3c0,0.5,0.3,0.9,0.7,1.1V23c0,0.7-0.2,0.8-0.5,1c-0.1,0-0.2,0.1-0.3,0.1l-1,0.5v-6.5
				c0.9-0.2,1.5-1,1.5-2c0-1.1-0.9-2-2-2s-2,0.9-2,2c0,0.9,0.6,1.7,1.5,2v7.1L17,25.7l0,0c-0.1,0-0.2,0.1-0.2,0.1
				c-0.6,0.3-1.7,0.9-1.7,2.5v1c-0.6,0.3-1.4,0.9-1.3,2.2C13.8,31.5,13.8,33.1,13.8,33.1z M21.3,19.9c0.2,0,0.4,0.2,0.4,0.4
				s-0.2,0.4-0.4,0.4s-0.4-0.2-0.4-0.4S21,19.9,21.3,19.9z M17.5,16.1c0-0.6,0.5-1,1-1c0.6,0,1,0.5,1,1s-0.5,1-1,1
				C18,17.2,17.5,16.7,17.5,16.1z M17.3,26.7c0.1-0.1,0.2-0.1,0.3-0.2l0.5-0.2v0.4c0,1-0.4,1.3-0.9,1.5c0,0-0.1,0-0.1,0.1l-0.9,0.5
				v-0.5l0,0C16.1,27.4,16.6,27.1,17.3,26.7z"/>
		</g>
		<path d="M189.8,12.2h0.1c0.3,0,0.6,0,0.8,0.1c0.2,0,0.5,0.1,0.7,0.2c0.2,0.1,0.5,0.3,0.7,0.6c0.3,0.2,0.6,0.6,0.9,1
			c0.3,0.4,0.7,0.9,1.2,1.5s1,1.3,1.6,2.2c0.7,0.9,1.3,1.6,1.8,2.3c0.5,0.7,1,1.2,1.4,1.7s0.8,0.9,1.2,1.2c0.4,0.3,0.8,0.6,1.2,0.7
			c0.4,0.2,0.8,0.3,1.3,0.4s1,0.1,1.5,0.1h1.7V9.9h-2.3v11.9h-0.1c-0.3,0-0.6,0-0.8-0.1c-0.2,0-0.5-0.1-0.7-0.3
			c-0.2-0.1-0.5-0.3-0.7-0.6c-0.3-0.2-0.6-0.6-0.9-1c-0.3-0.4-0.7-0.9-1.2-1.5c-0.4-0.6-1-1.3-1.6-2.1c-0.6-0.9-1.2-1.6-1.7-2.3
			s-1-1.2-1.4-1.7s-0.8-0.9-1.2-1.2s-0.8-0.6-1.2-0.8s-0.9-0.3-1.3-0.4c-0.5-0.1-1-0.1-1.6-0.1h-1.7v14.2h2.3V12.2L189.8,12.2z
			 M172,22.1c-1,0-1.9,0-2.7-0.1s-1.5-0.2-2.1-0.4c-0.6-0.2-1.1-0.5-1.5-0.9s-0.7-0.9-0.9-1.5s-0.3-1.4-0.3-2.2
			c0-0.9,0.1-1.6,0.3-2.2c0.2-0.6,0.5-1.1,0.9-1.5s0.9-0.7,1.5-0.9s1.3-0.3,2.1-0.4c0.8-0.1,1.7-0.1,2.7-0.1s1.9,0,2.7,0.1
			s1.5,0.2,2.1,0.4s1.1,0.5,1.5,0.9s0.7,0.9,0.9,1.5s0.3,1.4,0.3,2.2c0,0.9-0.1,1.6-0.3,2.2s-0.5,1.1-0.9,1.5s-0.9,0.7-1.5,0.9
			c-0.6,0.2-1.3,0.3-2.1,0.4S173,22.1,172,22.1z M172,9.7c-1.3,0-2.5,0.1-3.5,0.2c-1.1,0.1-2,0.4-2.8,0.7s-1.5,0.8-2,1.3
			c-0.5,0.6-0.9,1.3-1.2,2.1s-0.4,1.8-0.4,2.9s0.1,2.1,0.4,2.9c0.3,0.8,0.7,1.5,1.2,2.1s1.2,1,2,1.3s1.7,0.6,2.8,0.7
			c1,0.1,2.2,0.2,3.5,0.2s2.5-0.1,3.5-0.2s2-0.4,2.8-0.7c0.8-0.3,1.5-0.8,2-1.3c0.5-0.6,0.9-1.3,1.2-2.1c0.3-0.8,0.4-1.8,0.4-2.9
			s-0.1-2.1-0.4-2.9c-0.3-0.8-0.7-1.5-1.2-2.1s-1.2-1-2-1.3s-1.7-0.6-2.8-0.7C174.5,9.8,173.3,9.7,172,9.7z M141.8,17.1V12h10.1
			c0.5,0,1,0.1,1.4,0.2c0.4,0.2,0.7,0.4,0.9,0.6c0.2,0.2,0.4,0.5,0.5,0.8s0.1,0.6,0.1,0.9c0,0.3,0,0.6-0.1,0.9
			c-0.1,0.3-0.3,0.6-0.5,0.8c-0.2,0.3-0.5,0.5-0.9,0.6c-0.4,0.2-0.8,0.2-1.4,0.2L141.8,17.1L141.8,17.1z M139.5,24.1h2.3v-5h9.9
			c0.5,0,0.9,0.1,1.3,0.2c0.4,0.1,0.6,0.3,0.8,0.5s0.4,0.5,0.5,0.7c0.1,0.3,0.1,0.5,0.1,0.8v2.8h2.4v-2.7c0-0.5-0.1-1-0.3-1.4
			s-0.5-0.8-0.9-1.1c-0.4-0.3-0.9-0.6-1.5-0.8c0.6-0.2,1.2-0.4,1.6-0.8c0.5-0.3,0.8-0.8,1-1.3s0.4-1.1,0.4-1.8
			c0-0.9-0.2-1.7-0.6-2.3c-0.4-0.6-1-1.2-1.8-1.5c-0.8-0.4-1.8-0.5-2.9-0.5h-12.3V24.1z M131.5,17c0,0.8-0.1,1.5-0.2,2.1
			c-0.1,0.6-0.3,1.1-0.7,1.5c-0.3,0.4-0.8,0.7-1.4,0.9c-0.6,0.2-1.3,0.3-2.2,0.3h-9.3v-9.7h9.3c0.9,0,1.6,0.1,2.2,0.3
			c0.6,0.2,1,0.5,1.4,0.9c0.3,0.4,0.5,0.9,0.7,1.5C131.4,15.5,131.5,16.2,131.5,17z M115.4,24.1H127c1.2,0,2.3-0.1,3.1-0.4
			c0.9-0.3,1.6-0.7,2.1-1.3c0.5-0.6,0.9-1.3,1.2-2.2c0.2-0.9,0.4-1.9,0.4-3.1s-0.1-2.2-0.4-3.1c-0.2-0.9-0.6-1.6-1.2-2.2
			c-0.5-0.6-1.2-1-2.1-1.3c-0.9-0.3-1.9-0.5-3.1-0.5h-11.6L115.4,24.1L115.4,24.1z M92.9,12.2L92.9,12.2c0.4,0,0.7,0,0.9,0.1
			c0.2,0,0.5,0.1,0.7,0.2c0.2,0.1,0.5,0.3,0.7,0.6c0.3,0.2,0.6,0.6,0.9,1s0.7,0.9,1.2,1.5s1,1.3,1.6,2.2c0.7,0.9,1.3,1.6,1.8,2.3
			c0.5,0.7,1,1.2,1.4,1.7s0.8,0.9,1.2,1.2c0.4,0.3,0.8,0.6,1.2,0.7c0.4,0.2,0.8,0.3,1.3,0.4s1,0.1,1.5,0.1h1.7V9.9h-2.3v11.9h-0.1
			c-0.3,0-0.6,0-0.8-0.1c-0.2,0-0.5-0.1-0.7-0.3c-0.2-0.1-0.5-0.3-0.7-0.6c-0.3-0.2-0.6-0.6-0.9-1s-0.7-0.9-1.2-1.5
			c-0.4-0.6-1-1.3-1.6-2.1c-0.6-0.9-1.2-1.6-1.7-2.3s-1-1.2-1.4-1.7s-0.8-0.9-1.2-1.2c-0.4-0.3-0.8-0.6-1.2-0.8
			c-0.4-0.2-0.9-0.3-1.3-0.4c-0.5-0.1-1-0.1-1.6-0.1h-1.7v14.2h2.3L92.9,12.2L92.9,12.2z M84.8,12.1V9.9H73.6
			c-1.2,0-2.3,0.1-3.1,0.4c-0.9,0.3-1.6,0.7-2.1,1.3s-0.9,1.3-1.2,2.2c-0.2,0.9-0.4,1.9-0.4,3.1s0.1,2.2,0.4,3.1
			c0.2,0.9,0.6,1.6,1.2,2.2c0.5,0.6,1.2,1,2.1,1.3s1.9,0.4,3.1,0.4h11.2v-2.2H73.6c-0.8,0-1.5-0.1-2-0.2c-0.5-0.2-1-0.4-1.3-0.7
			c-0.3-0.3-0.6-0.7-0.8-1.2c-0.2-0.5-0.3-1-0.3-1.7h15.4V16H69.1c0-0.6,0.1-1.2,0.3-1.7c0.2-0.5,0.4-0.9,0.8-1.2
			c0.3-0.3,0.8-0.6,1.3-0.7c0.6-0.2,1.2-0.2,2-0.2L84.8,12.1L84.8,12.1z M59.4,17c0,0.8-0.1,1.5-0.2,2.1c-0.1,0.6-0.3,1.1-0.7,1.5
			c-0.3,0.4-0.8,0.7-1.4,0.9c-0.6,0.2-1.3,0.3-2.2,0.3h-9.3v-9.7H55c0.9,0,1.6,0.1,2.2,0.3c0.6,0.2,1,0.5,1.4,0.9
			c0.3,0.4,0.5,0.9,0.7,1.5C59.4,15.5,59.4,16.2,59.4,17z M43.4,24.1H55c1.2,0,2.3-0.1,3.1-0.4c0.9-0.3,1.6-0.7,2.1-1.3
			c0.5-0.6,0.9-1.3,1.2-2.2c0.2-0.9,0.4-1.9,0.4-3.1s-0.1-2.2-0.4-3.1c-0.2-0.9-0.6-1.6-1.2-2.2c-0.5-0.6-1.2-1-2.1-1.3
			C57.3,10,56.2,9.9,55,9.9H43.4V24.1L43.4,24.1z"/>
	</g>
</g>
</svg>
