<svg width="152" height="32" viewBox="0 0 152 32" fill="none" xmlns="http://www.w3.org/2000/svg">
<path d="M48.6154 18.7412V21.6765H46.7978C45.487 21.7724 44.1875 21.3835 43.1626 20.5873C42.7065 20.0972 42.361 19.5204 42.1482 18.894C41.9354 18.2675 41.8599 17.6045 41.9265 16.9483V11.1302H40V8.24814H41.9265V4.89062H45.4528V8.21295H48.5609V11.095H45.4528V16.9663C45.4073 17.4499 45.5498 17.9325 45.8526 18.3198C46.0414 18.4695 46.2594 18.5804 46.4936 18.6468C46.7279 18.7132 46.9734 18.7334 47.2158 18.706L48.6154 18.7412Z" fill="#0F2832"/>
<path d="M50.3557 4.16905C50.7417 3.85905 51.2112 3.69141 51.6937 3.69141C52.1763 3.69141 52.6457 3.85905 53.0318 4.16905C53.197 4.32854 53.3279 4.52427 53.4155 4.74319C53.5031 4.96211 53.5455 5.19905 53.5394 5.43715C53.5411 5.66972 53.4966 5.89972 53.4091 6.1126C53.3216 6.32549 53.193 6.51645 53.0318 6.67227C52.65 6.9928 52.1789 7.1668 51.6937 7.1668C51.2086 7.1668 50.7375 6.9928 50.3557 6.67227C50.1944 6.51645 50.0658 6.32549 49.9783 6.1126C49.8909 5.89972 49.8466 5.66972 49.8482 5.43715C49.8422 5.19905 49.8843 4.96211 49.972 4.74319C50.0596 4.52427 50.1905 4.32854 50.3557 4.16905ZM53.1857 9.10955V21.6916H50.1098V9.10955H53.1857Z" fill="#0F2832"/>
<path d="M63.3119 9.16814C64.0986 9.64941 64.6989 10.3764 65.0168 11.2329V8.56403H68.3072V21.4397C68.3249 22.5487 68.0796 23.6468 67.591 24.6463C67.1209 25.5818 66.3791 26.3582 65.4599 26.8783C64.414 27.4349 63.2385 27.7127 62.05 27.684C60.4213 27.7612 58.8132 27.3007 57.4809 26.375C56.3285 25.4938 55.5702 24.2049 55.3668 22.7823H58.6402C58.8046 23.4001 59.1927 23.9372 59.7313 24.293C60.35 24.6846 61.0767 24.8782 61.8115 24.8471C62.2418 24.8655 62.6715 24.7998 63.0754 24.6528C63.4794 24.5058 63.8497 24.2809 64.1643 23.9913C64.4832 23.6495 64.7266 23.2461 64.8792 22.8069C65.0318 22.3677 65.0901 21.9022 65.0507 21.4397V18.7871C64.7281 19.6455 64.1294 20.3769 63.3458 20.8691C62.5042 21.3903 61.5268 21.6586 60.5328 21.6413C59.4892 21.6509 58.4628 21.3776 57.5661 20.8519C56.6697 20.3021 55.9535 19.5097 55.5032 18.5691C55.0191 17.4608 54.7695 16.2665 54.7695 15.06C54.7695 13.8536 55.0191 12.6601 55.5032 11.5518C55.9583 10.6144 56.6734 9.82309 57.5661 9.26896C58.4642 8.74833 59.4907 8.48124 60.5328 8.49682C61.5052 8.45575 62.4693 8.68853 63.3119 9.16814V9.16814ZM59.0325 12.2403C58.3784 13.0021 58.0431 13.9802 58.0947 14.9764C58.0405 15.9679 58.3764 16.9421 59.0325 17.6961C59.6981 18.336 60.5914 18.6937 61.5216 18.6937C62.4518 18.6937 63.3451 18.336 64.0107 17.6961C64.6405 16.9286 64.9839 15.9713 64.9839 14.9846C64.9839 13.9979 64.6405 13.0415 64.0107 12.2739C63.3451 11.6341 62.4518 11.2756 61.5216 11.2756C60.5914 11.2756 59.6981 11.6341 59.0325 12.2739V12.2403Z" fill="#0F2832"/>
<path d="M76.5071 9.2077C77.3773 8.7284 78.3731 8.4805 79.385 8.49261V12.0307H78.3402C75.7372 12.0307 74.4357 13.1703 74.4357 15.4326V21.6923H70.7695V8.69692H74.4357V11.1802C74.9318 10.3681 75.6452 9.68912 76.5071 9.2077V9.2077Z" fill="#0F2832"/>
<path d="M81.1235 4.16905C81.5095 3.85905 81.979 3.69141 82.4615 3.69141C82.944 3.69141 83.4135 3.85905 83.7995 4.16905C83.9647 4.32854 84.0956 4.52427 84.1833 4.74319C84.2709 4.96211 84.3131 5.19905 84.307 5.43715C84.3086 5.66972 84.2644 5.89972 84.1769 6.1126C84.0894 6.32549 83.9608 6.51645 83.7995 6.67227C83.4177 6.9928 82.9466 7.1668 82.4615 7.1668C81.9764 7.1668 81.5052 6.9928 81.1235 6.67227C80.9622 6.51645 80.8336 6.32549 80.7461 6.1126C80.6586 5.89972 80.6142 5.66972 80.6158 5.43715C80.6097 5.19905 80.6521 4.96211 80.7397 4.74319C80.8273 4.52427 80.9583 4.32854 81.1235 4.16905ZM83.9379 9.10955V21.6916H80.9543V9.10955H83.9379Z" fill="#0F2832"/>
<path d="M94.6777 9.68669C95.6365 10.5015 96.2597 11.6176 96.4351 12.8336H93.2367C93.1251 12.2597 92.8157 11.7377 92.3579 11.3522C91.8615 10.9698 91.2372 10.7732 90.6005 10.7976C90.1164 10.7738 89.6385 10.9105 89.2472 11.1845C89.0897 11.3191 88.9655 11.4855 88.8834 11.6718C88.8013 11.858 88.7634 12.0589 88.7727 12.2609C88.7657 12.4226 88.7967 12.584 88.8637 12.7325C88.9306 12.8811 89.0316 13.0135 89.1593 13.1195C89.4392 13.3532 89.7692 13.5252 90.126 13.624C90.5126 13.7586 91.0749 13.8937 91.7954 14.0619C92.638 14.2335 93.4663 14.4635 94.2735 14.7513C94.9188 14.9886 95.4883 15.3833 95.9256 15.8958C96.4114 16.495 96.6548 17.2419 96.611 17.9993C96.6263 18.5123 96.5128 19.0214 96.2804 19.484C96.0481 19.9465 95.7035 20.3493 95.2754 20.6581C94.2282 21.3895 92.9492 21.7519 91.6549 21.6843C90.1645 21.7516 88.6913 21.3563 87.4546 20.557C86.926 20.1721 86.4839 19.6895 86.1548 19.1372C85.8256 18.585 85.6163 17.9743 85.5391 17.3428H88.8079C88.8412 17.6362 88.9362 17.9202 89.0872 18.1776C89.2382 18.4349 89.4422 18.6607 89.6866 18.8406C90.2656 19.2173 90.9555 19.4057 91.6549 19.3788C92.1372 19.4088 92.6138 19.2651 92.9906 18.9754C93.1408 18.8397 93.2592 18.675 93.3379 18.4922C93.4167 18.3095 93.4541 18.1131 93.4476 17.9154C93.4539 17.7473 93.421 17.5801 93.351 17.4257C93.2811 17.2714 93.176 17.1335 93.0434 17.0231C92.757 16.7725 92.4141 16.5886 92.0415 16.485C91.6549 16.3503 91.0925 16.2153 90.2841 16.047C89.4536 15.8806 88.6371 15.6558 87.8412 15.3741C87.2183 15.1564 86.6667 14.7846 86.2421 14.2969C85.7703 13.7176 85.5331 12.9945 85.5742 12.2609C85.5633 11.7412 85.678 11.2265 85.9098 10.7565C86.1415 10.2864 86.4839 9.8741 86.9099 9.55195C87.973 8.79816 89.2803 8.42841 90.6005 8.50846C92.0653 8.40182 93.5189 8.82213 94.6777 9.68669V9.68669Z" fill="#0F2832"/>
<path d="M106.401 9.62999C107.177 10.1053 107.773 10.8048 108.102 11.6264V4.89062H111.384V21.4459H108.102V18.9304C107.769 19.7541 107.174 20.4581 106.401 20.9435C105.562 21.4473 104.586 21.7067 103.595 21.69C102.553 21.7019 101.529 21.4374 100.636 20.9268C99.7414 20.3952 99.0268 19.629 98.5775 18.7196C98.0946 17.648 97.8457 16.4932 97.8457 15.3267C97.8457 14.1603 98.0946 13.0063 98.5775 11.9347C99.0233 11.0135 99.7472 10.2403 100.656 9.714C101.565 9.18773 102.618 8.93267 103.68 8.98091C104.633 8.95045 105.575 9.17521 106.401 9.62999V9.62999ZM102.132 12.6004C101.48 13.337 101.145 14.2827 101.197 15.2459C101.143 16.2046 101.478 17.1465 102.132 17.8755C102.796 18.4942 103.687 18.8401 104.615 18.8401C105.543 18.8401 106.434 18.4942 107.098 17.8755C107.727 17.1334 108.069 16.2079 108.069 15.2538C108.069 14.2998 107.727 13.375 107.098 12.6329C106.434 12.0143 105.543 11.6676 104.615 11.6676C103.687 11.6676 102.796 12.0143 102.132 12.6329V12.6004Z" fill="#0F2832"/>
<path d="M122.401 9.17281C123.181 9.6616 123.778 10.3892 124.102 11.2451V8.56651H127.384V21.4378H124.102V18.8267C123.775 19.6851 123.179 20.4177 122.401 20.9163C121.557 21.4424 120.575 21.7118 119.578 21.6912C118.542 21.703 117.523 21.4285 116.636 20.899C115.737 20.3525 115.021 19.5556 114.578 18.6079C114.095 17.4956 113.846 16.2969 113.846 15.0861C113.846 13.8753 114.095 12.6774 114.578 11.5651C115.026 10.6206 115.741 9.82506 116.636 9.274C117.524 8.74958 118.544 8.48125 119.578 8.49906C120.565 8.44805 121.546 8.68201 122.401 9.17281V9.17281ZM118.132 12.2561C117.474 13.0172 117.138 14.0014 117.197 15.0022C117.136 15.9982 117.471 16.9785 118.132 17.7318C118.451 18.0628 118.837 18.3221 119.266 18.4935C119.694 18.6649 120.154 18.7442 120.615 18.7255C121.077 18.7327 121.535 18.6468 121.962 18.473C122.389 18.2992 122.775 18.041 123.098 17.7145C123.727 16.9442 124.069 15.9842 124.069 14.9939C124.069 14.0037 123.727 13.0429 123.098 12.2726C122.775 11.946 122.389 11.6879 121.962 11.5141C121.535 11.3403 121.077 11.2543 120.615 11.2615C120.154 11.2429 119.694 11.3221 119.266 11.4935C118.837 11.6649 118.451 11.9251 118.132 12.2561V12.2561Z" fill="#0F2832"/>
<path d="M137.194 18.7412V21.6765H135.384C134.079 21.7724 132.785 21.3835 131.765 20.5873C131.31 20.0972 130.967 19.5204 130.755 18.894C130.543 18.2675 130.468 17.6045 130.534 16.9483V11.1302H128.615V8.24814H130.534V4.89062H134.154V8.21295H137.231V11.095H134.154V16.9663C134.099 17.4507 134.242 17.9366 134.552 18.3198C134.738 18.4672 134.952 18.577 135.182 18.6434C135.412 18.7098 135.653 18.731 135.891 18.706L137.194 18.7412Z" fill="#0F2832"/>
<path d="M147.016 9.172C147.801 9.65506 148.4 10.3847 148.717 11.2445V8.56564H151.999V21.4381H148.717V18.8268C148.395 19.6883 147.798 20.4224 147.016 20.9165C146.177 21.4396 145.202 21.7088 144.21 21.6915C143.169 21.7038 142.144 21.4293 141.251 20.8992C140.357 20.3474 139.642 19.552 139.193 18.6079C138.71 17.4955 138.461 16.2967 138.461 15.0858C138.461 13.8749 138.71 12.6769 139.193 11.5645C139.639 10.6082 140.362 9.80553 141.271 9.25921C142.18 8.71288 143.233 8.4481 144.295 8.49818C145.248 8.46656 146.191 8.69988 147.016 9.172V9.172ZM142.747 12.2556C142.095 13.0202 141.76 14.0019 141.812 15.0019C141.758 15.9971 142.093 16.9748 142.747 17.7317C143.411 18.3739 144.302 18.733 145.23 18.733C146.158 18.733 147.05 18.3739 147.714 17.7317C148.342 16.9613 148.684 16.0005 148.684 15.0101C148.684 14.0197 148.342 13.0597 147.714 12.2893C147.05 11.6471 146.158 11.2872 145.23 11.2872C144.302 11.2872 143.411 11.6471 142.747 12.2893V12.2556Z" fill="#0F2832"/>
<path d="M27.1342 21.2309L26.3127 19.4339C25.8448 18.4057 25.0111 17.5889 23.9743 17.143L22.1543 16.3582L23.962 15.5357C24.9854 15.0667 25.7966 14.2315 26.2368 13.1942L27.0206 11.3848L27.842 13.1818C28.3099 14.21 29.1437 15.0267 30.1804 15.4727L32.0004 16.2575L30.1931 17.08C29.1733 17.548 28.3628 18.3774 27.9179 19.4085L27.1342 21.2309Z" fill="#EFB700"/>
<path d="M14.0408 14.4327V6.48732H13.9219H20.5385V0H0V6.48732H6.40255V14.0561C6.40255 14.1411 6.40255 14.2261 6.40255 14.3111V14.4689C6.40255 22.5479 10.5245 32 22.1538 32V25.7067C16.2144 25.6702 14.0408 20.981 14.0408 14.4327Z" fill="url(#paint0_linear_285_583)"/>
<defs>
<linearGradient id="paint0_linear_285_583" x1="-4.97213" y1="-9.73913" x2="67.3218" y2="1.65287" gradientUnits="userSpaceOnUse">
<stop offset="0.0885417" stop-color="#4EC8AB"/>
<stop offset="0.645833" stop-color="#81F4D8"/>
</linearGradient>
</defs>
</svg>
