<svg width="163" height="74" viewBox="0 0 163 74" fill="none" xmlns="http://www.w3.org/2000/svg">
<path d="M34.7 32.1H21.1V59.4H15V32.1H11V27.1H15V26C15 15.3 23 14 27.1 14C27.9 14 28.7 14.1 29.4 14.2V19.5C28.9 19.4 28.4 19.4 27.9 19.4C25.6 19.4 21.1 20.2 21.1 26.2V27.2H40.9V59.5H34.8L34.7 32.1ZM34.7 14.3H41V20.6H34.7V14.3Z" fill="#16BC9C"/>
<path d="M65.7 26.3C67.9 26.2 70.2 26.6 72.2 27.4C74.3 28.2 76.2 29.4 77.8 31L74.9 35.4C72.5 33.1 69.3 31.7 66 31.7C64.5 31.7 63 31.9 61.6 32.5C60.2 33.1 58.9 33.9 57.9 35C56.8 36.1 56 37.4 55.5 38.8C55 40.2 54.7 41.7 54.8 43.2C54.7 46.2 55.8 49 57.8 51.2C59.8 53.4 62.6 54.7 65.6 54.8H66C69.7 54.7 73.3 53.1 75.9 50.5L78.4 55.1C76.7 56.8 74.7 58.1 72.5 59C70.3 59.9 68 60.3 65.6 60.3C55.5 60.3 48.3 53.1 48.3 43.4C48.3 33.7 55.5 26.3 65.7 26.3Z" fill="#16BC9C"/>
<path d="M86.9 32.5H82.7V27.5H87.1V18.2H93.1V27.5H101V32.5H93.2V46.9C93.2 53.3 97.8 54.2 100.1 54.2C100.6 54.2 101.1 54.2 101.6 54.1V59.6C100.9 59.7 100.2 59.7 99.4 59.7C95.2 59.7 87 58.4 87 47.6L86.9 32.5Z" fill="#16BC9C"/>
<path d="M108.3 14.3H114.6V20.6H108.3V14.3ZM108.3 27.1H114.4V59.4H108.3V27.1Z" fill="#16BC9C"/>
<path d="M119.9 27.1H126.5L134.3 48.9C134.9 50.7 135.3 53.3 135.4 53.3H135.5C135.5 53.3 136 50.7 136.7 48.9L144.5 27.1H151L139 59.4H132L119.9 27.1Z" fill="#16BC9C"/>
</svg>
