<?xml version="1.0" encoding="UTF-8"?><svg id="a" xmlns="http://www.w3.org/2000/svg" width="900" height="839.79" viewBox="0 0 900 839.79"><path d="M38.26,691.32c-25.79,0-38.26,17.47-38.26,42.21v64.05c0,19.34,7.49,42.21,38.26,42.21,25.79,0,38.47-17.68,38.47-42.21v-6.45h-21.84v6.45c0,6.03-.21,20.8-16.64,20.8s-16.64-14.76-16.64-20.8v-64.05c0-6.03,.21-20.8,16.64-20.8s16.64,14.76,16.64,20.8v6.24h21.84v-6.24c0-19.55-7.49-42.21-38.47-42.21Z" fill="#17c37b"/><path d="M111.88,694.02l-22.46,143.07h21.84l4.16-28.07h28.7l4.16,28.07h21.84l-22.46-143.07h-35.77Zm6.86,94.62l11.02-73.62,11.02,73.62h-22.04Z" fill="#17c37b"/><path d="M221.05,691.32c-25.99,0-38.26,15.18-38.26,40.14,0,26.41,12.89,32.65,37.64,43.67,15.6,6.65,17.88,17.88,17.88,23.71,0,4.99-1.66,19.76-17.26,19.76s-17.26-14.14-17.26-21v-12.89h-21v12.89c0,19.34,7.49,42.21,38.26,42.21,25.79,0,38.47-16.43,38.47-40.97,0-29.11-18.09-38.06-36.39-45.33-15.6-6.03-19.34-13.72-19.34-20.59,0-4.37-1.04-20.59,17.26-20.59,15.6,0,17.26,14.97,17.26,21.21v4.99h21.21v-4.99c0-19.55-7.49-42.21-38.47-42.21Z" fill="#17c37b"/><path d="M312.75,691.32c-25.79,0-38.26,17.47-38.26,42.21v64.05c0,19.34,7.49,42.21,38.26,42.21,25.79,0,38.47-17.68,38.47-42.21v-6.45h-21.84v6.45c0,6.03-.21,20.8-16.64,20.8s-16.64-14.76-16.64-20.8v-64.05c0-6.03,.21-20.8,16.64-20.8s16.64,14.76,16.64,20.8v6.24h21.84v-6.24c0-19.55-7.49-42.21-38.47-42.21Z" fill="#17c37b"/><path d="M386.37,694.02l-22.46,143.07h21.84l4.16-28.07h28.7l4.16,28.07h21.84l-22.46-143.07h-35.77Zm6.86,94.62l11.02-73.62,11.02,73.62h-22.04Z" fill="#17c37b"/><path d="M492.63,694.02h-35.14v143.07h35.14c29.32,.62,41.59-19.34,41.59-40.13v-62.59c0-21.42-12.27-40.34-41.59-40.34Zm20.17,102.31c0,5.82-2.29,19.76-19.76,19.76h-14.35v-101.07h14.35c17.47,0,19.76,13.93,19.76,19.96v61.35Z" fill="#17c37b"/><polygon points="599.1 715.02 625.3 715.02 625.3 694.02 549.81 694.02 549.81 715.02 576.02 715.02 576.02 816.09 548.98 816.09 548.98 837.09 625.72 837.09 625.72 816.09 599.1 816.09 599.1 715.02" fill="#17c37b"/><path d="M660.86,694.02l-22.46,143.07h21.83l4.16-28.07h28.7l4.16,28.07h21.84l-22.46-143.07h-35.77Zm6.86,94.62l11.02-73.62,11.02,73.62h-22.04Z" fill="#17c37b"/><path d="M738.21,715.02h49.08v81.93c0,7.49-.83,22.04-17.26,22.04s-17.26-13.72-17.26-21.42v-14.14h-21v14.14c0,26.41,12.48,42.21,38.26,42.21,25.99-.21,38.47-15.8,38.47-42.21v-103.56h-70.29v21Z" fill="#17c37b"/><path d="M900,738.52v-4.99c0-19.55-7.49-42.21-38.47-42.21-25.99,0-38.26,15.18-38.26,40.14,0,26.41,12.89,32.65,37.64,43.67,15.6,6.65,17.88,17.88,17.88,23.71,0,4.99-1.66,19.76-17.26,19.76s-17.26-14.14-17.26-21v-12.89h-21v12.89c0,19.34,7.49,42.21,38.26,42.21,25.79,0,38.47-16.43,38.47-40.97,0-29.11-18.09-38.06-36.39-45.33-15.6-6.03-19.34-13.72-19.34-20.59,0-4.37-1.04-20.59,17.26-20.59,15.6,0,17.26,14.97,17.26,21.21v4.99h21.21Z" fill="#17c37b"/><path d="M169.85,625.26H730.15V0H169.85V625.26ZM191.02,21.17H708.98V604.09h-249.31v-216.05l45.94,45.95,13.9-13.9-69.51-69.51-69.51,69.51,13.9,13.9,45.61-45.61v215.72H191.02V21.17Z" fill="#17c37b"/><polygon points="450 155.94 505.61 211.55 519.51 197.65 450 128.14 380.49 197.65 394.39 211.55 450 155.94" fill="#17c37b"/><polygon points="450 211.55 547.32 308.87 561.22 294.97 450 183.75 338.78 294.97 352.68 308.87 450 211.55" fill="#17c37b"/><polygon points="589.02 406.18 602.92 392.28 450 239.36 297.08 392.28 310.98 406.18 450 267.16 589.02 406.18" fill="#17c37b"/><polygon points="547.32 420.09 561.22 406.18 450 294.97 338.78 406.18 352.68 420.09 450 322.77 547.32 420.09" fill="#17c37b"/></svg>