<?xml version="1.0" encoding="UTF-8"?><svg id="a" xmlns="http://www.w3.org/2000/svg" width="900" height="1004.36" viewBox="0 0 900 1004.36"><path d="M0,0V1004.36H900V0H0ZM866,970.36H465.52v-347.04l73.8,73.8,22.33-22.33-111.66-111.66-111.66,111.66,22.33,22.33,73.27-73.27v346.5H34V34H866V970.36Z" fill="#17c37b"/><polygon points="450 250.49 539.32 339.82 561.66 317.49 450 205.83 338.34 317.49 360.68 339.82 450 250.49" fill="#17c37b"/><polygon points="450 339.82 606.32 496.14 628.65 473.81 450 295.16 271.35 473.81 293.68 496.14 450 339.82" fill="#17c37b"/><polygon points="450 429.14 673.31 652.46 695.64 630.12 450 384.48 204.36 630.12 226.69 652.46 450 429.14" fill="#17c37b"/><polygon points="271.35 652.46 293.68 674.79 450 518.47 606.32 674.79 628.65 652.46 450 473.81 271.35 652.46" fill="#17c37b"/></svg>